<?xml version="1.0" standalone="no"?>
<!DOCTYPE svg PUBLIC "-//W3C//DTD SVG 1.1//EN" "http://www.w3.org/Graphics/SVG/1.1/DTD/svg11.dtd">
<svg width="5in" height="19in" viewBox="0 0 500 1900" xmlns="http://www.w3.org/2000/svg" version="1.1">
<polyline points="0,0 500,0 500,550 244,550 244,563 250,563 250,605 244,605 244,618 500,618 500,1168 244,1168 244,1181 250,1181 250,1223 244,1223 244,1236 500,1236 500,1786 244,1786 244,1799 250,1799 250,1841 244,1841 244,1854 500,1854 500,1869 0,1869 0,0" fill="black" stroke="black" stroke-width="3" />
</svg>
